<svg width="38" height="38" viewBox="0 0 38 38" fill="none" xmlns="http://www.w3.org/2000/svg">
<circle cx="19" cy="19" r="19" fill="white"/>
<path d="M28.1425 16.147V13.1117C28.1425 12.5706 27.9284 12.0515 27.5473 11.6689C27.1662 11.2862 26.6493 11.0712 26.1103 11.0712H20.0134V9.73264C20.3234 9.45309 20.5215 9.0511 20.5215 8.60015C20.5215 8.19427 20.3609 7.80501 20.0751 7.518C19.7892 7.231 19.4016 7.06976 18.9973 7.06976C18.5931 7.06976 18.2054 7.231 17.9195 7.518C17.6337 7.80501 17.4731 8.19427 17.4731 8.60015C17.4731 9.0511 17.6713 9.45309 17.9812 9.73264V11.0712H11.8843C11.3454 11.0712 10.8284 11.2862 10.4473 11.6689C10.0662 12.0515 9.85207 12.5706 9.85207 13.1117V16.1705L9.77891 16.1756C9.52273 16.1939 9.28299 16.309 9.10801 16.4978C8.93302 16.6866 8.8358 16.9349 8.83594 17.1928V19.2333C8.83594 19.5039 8.94299 19.7634 9.13356 19.9547C9.32412 20.146 9.58258 20.2535 9.85207 20.2535V25.3548C9.85207 25.896 10.0662 26.415 10.4473 26.7977C10.8284 27.1804 11.3454 27.3953 11.8843 27.3953H26.1103C26.6493 27.3953 27.1662 27.1804 27.5473 26.7977C27.9284 26.415 28.1425 25.896 28.1425 25.3548V20.2535C28.412 20.2535 28.6705 20.146 28.8611 19.9547C29.0516 19.7634 29.1587 19.5039 29.1587 19.2333V17.256C29.1705 17.0977 29.1454 16.9388 29.0855 16.7918C28.8803 16.2939 28.4403 16.1745 28.1425 16.147ZM13.9166 17.1928C13.9166 16.0664 14.5995 15.1522 15.4408 15.1522C16.2822 15.1522 16.965 16.0664 16.965 17.1928C16.965 18.3191 16.2822 19.2333 15.4408 19.2333C14.5995 19.2333 13.9166 18.3191 13.9166 17.1928ZM23.0598 23.3143C22.0427 23.3112 14.9338 23.3143 14.9328 23.3143V21.2738C14.9328 21.2738 22.0467 21.2718 23.0639 21.2738L23.0598 23.3143ZM22.5538 19.2333C21.7124 19.2333 21.0296 18.3191 21.0296 17.1928C21.0296 16.0664 21.7124 15.1522 22.5538 15.1522C23.3952 15.1522 24.078 16.0664 24.078 17.1928C24.078 18.3191 23.3952 19.2333 22.5538 19.2333Z" fill="#FF8744"/>
<circle cx="33.5" cy="31.5" r="4.5" fill="#61FF29"/>
<circle cx="33.5" cy="31.5" r="4.5" stroke="#FF8744"/>
</svg>
